PathFileType	4	(x/y/z)	S01_M20_T10.trc
DataRate	CameraRate	NumFrames	NumMarkers	Units	OrigDataRate	OrigDataStartFrame	OrigNumFrames
240	240	7	51	mm	240	315	419
Frame#	Time	Sternum			R.Acromium			L.Acromium			Top.Head			R.ASIS			L.ASIS			R.PSIS			L.PSIS			R.Great.Tro			L.Great.Tro			R.Iliac.Crest			L.Iliac.Crest			V.Sacral			R.Thigh.Upper.Post			R.Thigh.Lower.Ant			R.Thigh.Lower.Post			R.Thigh.Upper.Ant			R.Knee.Lat			R.Knee.Med			R.Shank.Upper.Post			R.Shank.Lower.Ant			R.Shank.Lower.Post			R.Shank.Upper.Ant			R.Ankle.Lat			R.Ankle.Med			R.Heel.Upper			R.Heel.Med			R.Heel.Lat			R.Toe.Lat			R.Toe.Med			R.Toe.Tip			L.Thigh.Upper.Post			L.Thigh.Lower.Ant			L.Thigh.Lower.Post			L.Thigh.Upper.Ant			L.Knee.Lat			L.Knee.Med			L.Shank.Upper.Post			L.Shank.Lower.Ant			L.Shank.Lower.Post			L.Shank.Upper.Ant			L.Ankle.Lat			L.Ankle.Med			L.Heel.Upper			L.Heel.Med			L.Heel.Lat			L.Toe.Lat			L.Toe.Med			L.Toe.Tip			Cervical.Spine			Back			
		X1	Y1	Z1	X2	Y2	Z2	X3	Y3	Z3	X4	Y4	Z4	X5	Y5	Z5	X6	Y6	Z6	X7	Y7	Z7	X8	Y8	Z8	X9	Y9	Z9	X10	Y10	Z10	X11	Y11	Z11	X12	Y12	Z12	X13	Y13	Z13	X14	Y14	Z14	X15	Y15	Z15	X16	Y16	Z16	X17	Y17	Z17	X18	Y18	Z18	X19	Y19	Z19	X20	Y20	Z20	X21	Y21	Z21	X22	Y22	Z22	X23	Y23	Z23	X24	Y24	Z24	X25	Y25	Z25	X26	Y26	Z26	X27	Y27	Z27	X28	Y28	Z28	X29	Y29	Z29	X30	Y30	Z30	X31	Y31	Z31	X32	Y32	Z32	X33	Y33	Z33	X34	Y34	Z34	X35	Y35	Z35	X36	Y36	Z36	X37	Y37	Z37	X38	Y38	Z38	X39	Y39	Z39	X40	Y40	Z40	X41	Y41	Z41	X42	Y42	Z42	X43	Y43	Z43	X44	Y44	Z44	X45	Y45	Z45	X46	Y46	Z46	X47	Y47	Z47	X48	Y48	Z48	X49	Y49	Z49	X50	Y50	Z50	X51	Y51	Z51	

315	1.3083	527.23	1294.6	242.98	411.73	1550.7	401.79	404	1556.6	75.24	446.4	1866.4	215.69	462.73	1040.9	403.67	487.93	1039.3	138.69	236.91	1084.2	291.67	243.24	1082.7	187.93	380.58	988.65	480.36	391.15	990.29	52.227	373.09	1145.1	457.4	386.22	1120.4	54.246	225.2	1047.4	235.67	450.66	685.87	476.14	537.54	632.51	465.09	475.83	600.53	462.22	515.26	720.03	476.39	499.89	544.47	463.46	530.45	542.08	316.15	363.21	459	464.13	358.62	355.64	426.26	314.81	409.87	450.81	404.4	409.61	448.07	183.85	258.73	402.71	224.41	238.11	315.78	124.92	284.92	332.3	119.26	254.22	301.08	104.49	256.27	364.37	212.48	111.36	441.13	258.78	94.545	327.04	309.27	64.881	390.5	387.73	701.07	82.883	478.37	638.85	90.685	404.83	613.8	104.64	452.55	727.97	67.147	464.2	534.05	103.95	475.39	543.4	243.88	408.14	394.95	84.523	466.16	304.72	115.54	407.17	317.21	90.615	467.74	381.41	106.14	385.13	106.92	129.29	407.69	116.72	227.73	312.09	76.443	173.83	321.39	51.708	208.25	321.54	49.765	145.7	531.35	41.441	115.51	555.61	46.404	237.41	619.67	56.13	187.49	321.36	1609.4	239.9	230.25	1301.7	257.85
316	1.3125	532.21	1295.7	243	416.21	1551.6	401.8	408.96	1557.5	75.205	450.83	1867.3	215.99	467.92	1042	403.3	492.84	1040.1	138.28	241.98	1085.1	291.82	248.17	1083.5	188.07	386.07	989.96	480.44	395.66	990.85	52.166	378.21	1146.1	457.26	390.9	1121.1	54.029	230.21	1048.2	235.86	458.54	687.56	476.55	545.84	634.97	464.96	484.38	602.44	462.46	522.84	722.29	476.42	508.81	546.47	463.47	538.87	544.38	316.17	373.23	458.71	464.15	370.42	355.3	426.2	325.69	408.7	450.66	415.26	410.05	448.08	197.34	255.22	402.56	238.35	235.58	315.65	137.72	280.09	332.18	132.79	249.21	300.98	117.98	250.94	364.29	229.42	108.66	441.09	276.08	92.905	326.99	327.27	64.45	390.43	389.91	701.83	82.834	480.04	638.8	90.406	406.29	614.39	104.45	454.92	728.17	66.932	464.97	534.08	103.6	476.49	543.27	243.56	408.47	395.03	84.285	466.34	304.72	115.3	407.38	317.28	90.437	468.04	381.42	105.84	385.16	107	129.3	407.71	116.79	227.69	312.11	76.523	173.87	321.38	51.78	208.27	321.55	49.861	145.73	531.36	41.419	115.49	555.62	46.377	237.38	619.68	56.093	187.47	326.12	1610.1	239.74	235.25	1302.4	257.52
317	1.3167	537.18	1296.7	243.02	420.7	1552.5	401.83	413.92	1558.4	75.184	455.24	1868.1	216.31	473.12	1043	402.93	497.75	1040.8	137.88	247.05	1085.8	291.98	253.1	1084.2	188.21	391.56	991.2	480.51	400.18	991.35	52.108	383.34	1147	457.13	395.55	1121.7	53.795	235.2	1048.9	236.05	466.37	689.21	476.94	554.07	637.38	464.82	492.85	604.31	462.69	530.37	724.5	476.42	517.65	548.43	463.48	547.17	546.61	316.19	383.21	458.34	464.19	382.23	354.92	426.16	336.58	407.46	450.51	426.11	410.45	448.11	210.94	251.62	402.43	252.39	232.96	315.56	150.65	275.11	332.06	146.47	244.08	300.89	131.63	245.5	364.22	246.48	105.96	441.09	293.51	91.27	327	345.34	64.063	390.44	392.09	702.57	82.795	481.71	638.75	90.143	407.75	614.97	104.28	457.3	728.35	66.735	465.73	534.11	103.26	477.58	543.14	243.25	408.81	395.1	84.062	466.53	304.71	115.08	407.61	317.35	90.27	468.34	381.42	105.55	385.2	107.09	129.31	407.73	116.84	227.65	312.13	76.601	173.92	321.37	51.847	208.29	321.56	49.953	145.76	531.36	41.399	115.47	555.63	46.35	237.36	619.69	56.056	187.46	330.89	1610.9	239.61	240.24	1303.1	257.2
318	1.3208	542.15	1297.6	243.04	425.2	1553.2	401.87	418.88	1559.3	75.174	459.64	1868.9	216.64	478.32	1044	402.57	502.66	1041.4	137.48	252.11	1086.5	292.13	258.02	1084.9	188.35	397.04	992.4	480.58	404.7	991.82	52.054	388.46	1147.8	457.01	400.18	1122.2	53.549	240.19	1049.6	236.24	474.14	690.82	477.3	562.22	639.73	464.66	501.26	606.15	462.9	537.84	726.66	476.41	526.41	550.35	463.49	555.37	548.78	316.2	393.17	457.91	464.23	394.05	354.5	426.15	347.48	406.14	450.36	436.93	410.79	448.15	224.65	247.94	402.32	266.55	230.26	315.51	163.72	270.02	331.97	160.32	238.84	300.82	145.43	239.95	364.17	263.65	103.28	441.15	311.06	89.648	327.08	363.49	63.73	390.52	394.28	703.3	82.763	483.37	638.68	89.897	409.21	615.54	104.11	459.67	728.52	66.555	466.49	534.13	102.94	478.65	543	242.96	409.16	395.18	83.851	466.72	304.69	114.87	407.84	317.42	90.112	468.65	381.42	105.28	385.23	107.17	129.33	407.74	116.9	227.62	312.16	76.674	173.97	321.36	51.909	208.32	321.57	50.041	145.8	531.37	41.382	115.46	555.63	46.321	237.34	619.7	56.017	187.45	335.65	1611.5	239.49	245.23	1303.7	256.89
319	1.325	547.11	1298.5	243.06	429.7	1553.9	401.92	423.85	1560	75.178	464.03	1869.7	216.98	483.51	1044.9	402.22	507.56	1042	137.09	257.17	1087.2	292.27	262.94	1085.6	188.48	402.52	993.53	480.66	409.23	992.23	52.006	393.59	1148.6	456.9	404.8	1122.6	53.294	245.18	1050.3	236.42	481.85	692.38	477.65	570.29	642.03	464.49	509.59	607.94	463.09	545.24	728.76	476.38	535.08	552.23	463.49	563.45	550.88	316.2	403.1	457.41	464.29	405.88	354.04	426.15	358.39	404.77	450.23	447.72	411.1	448.21	238.46	244.2	402.24	280.81	227.48	315.49	176.94	264.81	331.88	174.33	233.5	300.77	159.39	234.32	364.13	280.92	100.63	441.27	328.71	88.048	327.23	381.7	63.456	390.68	396.47	704.01	82.738	485.04	638.61	89.666	410.68	616.1	103.95	462.04	728.66	66.393	467.25	534.14	102.63	479.7	542.86	242.69	409.53	395.25	83.654	466.93	304.68	114.67	408.08	317.49	89.962	468.97	381.41	105.02	385.26	107.25	129.35	407.75	116.94	227.59	312.19	76.744	174.02	321.36	51.966	208.35	321.59	50.124	145.83	531.38	41.367	115.45	555.64	46.29	237.33	619.71	55.977	187.44	340.42	1612.1	239.38	250.21	1304.3	256.6
320	1.3292	552.08	1299.3	243.07	434.2	1554.6	401.99	428.82	1560.8	75.193	468.4	1870.4	217.32	488.69	1045.8	401.89	512.46	1042.5	136.72	262.22	1087.8	292.42	267.85	1086.2	188.62	407.99	994.6	480.74	413.76	992.6	51.965	398.72	1149.4	456.81	409.41	1123	53.036	250.16	1050.9	236.6	489.5	693.9	477.96	578.28	644.26	464.3	517.85	609.69	463.26	552.59	730.78	476.32	543.66	554.05	463.48	571.44	552.92	316.2	413	456.85	464.35	417.71	353.54	426.19	369.31	403.33	450.1	458.49	411.36	448.28	252.39	240.4	402.2	295.18	224.65	315.52	190.31	259.51	331.82	188.51	228.07	300.75	173.51	228.62	364.11	298.28	98.016	441.46	346.46	86.48	327.46	399.97	63.251	390.92	398.67	704.7	82.718	486.7	638.52	89.45	412.16	616.64	103.79	464.41	728.79	66.247	468.01	534.15	102.33	480.72	542.71	242.44	409.9	395.32	83.468	467.14	304.66	114.48	408.33	317.56	89.818	469.3	381.4	104.77	385.29	107.32	129.37	407.75	116.99	227.56	312.22	76.811	174.07	321.37	52.018	208.39	321.6	50.202	145.87	531.39	41.353	115.44	555.65	46.259	237.31	619.72	55.936	187.43	345.18	1612.7	239.29	255.2	1304.8	256.32
321	1.3333	557.04	1300	243.09	438.72	1555.2	402.06	433.78	1561.4	75.219	472.76	1871	217.67	493.87	1046.5	401.58	517.37	1042.9	136.35	267.27	1088.4	292.57	272.76	1086.7	188.75	413.46	995.61	480.82	418.3	992.93	51.931	403.86	1150.1	456.72	414.03	1123.3	52.78	255.13	1051.4	236.78	497.08	695.36	478.23	586.19	646.42	464.1	526.02	611.37	463.41	559.86	732.74	476.25	552.16	555.83	463.46	579.34	554.88	316.18	422.88	456.23	464.41	429.55	353.01	426.25	380.24	401.84	449.99	469.24	411.58	448.36	266.42	236.56	402.19	309.65	221.77	315.58	203.83	254.12	331.78	202.84	222.56	300.76	187.78	222.85	364.13	315.74	95.458	441.72	364.29	84.953	327.75	418.27	63.12	391.26	400.87	705.37	82.702	488.36	638.43	89.25	413.64	617.17	103.65	466.79	728.91	66.117	468.77	534.14	102.04	481.72	542.55	242.2	410.3	395.38	83.292	467.37	304.64	114.3	408.6	317.62	89.679	469.65	381.38	104.54	385.33	107.39	129.4	407.75	117.02	227.54	312.26	76.873	174.13	321.38	52.065	208.44	321.61	50.275	145.91	531.39	41.341	115.43	555.66	46.225	237.3	619.73	55.892	187.43	349.95	1613.2	239.22	260.18	1305.3	256.05
